<?xml version="1.0" encoding="utf-8"?>
<!-- Generator: Adobe Illustrator 27.4.1, SVG Export Plug-In . SVG Version: 6.00 Build 0)  -->
<svg version="1.1" id="Layer_1" xmlns="http://www.w3.org/2000/svg" xmlns:xlink="http://www.w3.org/1999/xlink" x="0px" y="0px"
	 viewBox="0 0 595.3 595.3" style="enable-background:new 0 0 595.3 595.3;" xml:space="preserve">
<style type="text/css">
	.st0{clip-path:url(#SVGID_00000057862376968352881130000009331878804800903094_);}
	.st1{fill:#A7D5BC;}
	.st2{fill:#A6D4BC;}
	.st3{fill:#A5D4BC;}
	.st4{fill:#A4D4BC;}
	.st5{fill:#A3D3BC;}
	.st6{fill:#A2D3BC;}
	.st7{fill:#A1D2BC;}
	.st8{fill:#A0D2BC;}
	.st9{fill:#9FD2BC;}
	.st10{fill:#9ED1BC;}
	.st11{fill:#9DD1BC;}
	.st12{fill:#9CD1BC;}
	.st13{fill:#9AD0BC;}
	.st14{fill:#99D0BC;}
	.st15{fill:#98D0BC;}
	.st16{fill:#97CFBC;}
	.st17{fill:#96CFBC;}
	.st18{fill:#95CEBC;}
	.st19{fill:#94CEBC;}
	.st20{fill:#93CEBC;}
	.st21{fill:#91CDBC;}
	.st22{fill:#90CDBC;}
	.st23{fill:#8FCDBC;}
	.st24{fill:#8ECCBC;}
	.st25{fill:#8DCCBB;}
	.st26{fill:#8CCBBB;}
	.st27{fill:#8ACBBB;}
	.st28{fill:#89CBBB;}
	.st29{fill:#88CABC;}
	.st30{fill:#87CABC;}
	.st31{fill:#85C9BC;}
	.st32{fill:#84C9BC;}
	.st33{fill:#83C9BC;}
	.st34{fill:#82C8BD;}
	.st35{fill:#82C8BC;}
	.st36{fill:#80C8BC;}
	.st37{fill:#7EC7BD;}
	.st38{fill:#7CC7BC;}
	.st39{fill:#7BC6BD;}
	.st40{fill:#79C6BC;}
	.st41{fill:#78C6BC;}
	.st42{fill:#77C5BC;}
	.st43{fill:#75C5BC;}
	.st44{fill:#72C4BB;}
	.st45{fill:#71C3BB;}
	.st46{fill:#6FC3BB;}
	.st47{fill:#6EC3BB;}
	.st48{fill:#6CC2BC;}
	.st49{fill:#6CC2BD;}
	.st50{fill:#6BC2BD;}
	.st51{fill:#67C1BC;}
	.st52{fill:#66C1BC;}
	.st53{fill:#64C0BD;}
	.st54{fill:#62C0BD;}
	.st55{fill:#61C0BD;}
	.st56{fill:#5FBFBD;}
	.st57{fill:#5DBFBD;}
	.st58{fill:#5CBEBC;}
	.st59{fill:#5ABEBC;}
	.st60{fill:#58BEBD;}
	.st61{fill:#56BDBD;}
	.st62{fill:#56BDBE;}
	.st63{fill:#54BDBE;}
	.st64{fill:#52BDBE;}
	.st65{fill:#50BCBE;}
	.st66{fill:#4EBCBE;}
	.st67{fill:#4CBCBE;}
	.st68{fill:#4CBCBF;}
	.st69{fill:#4ABBBF;}
	.st70{fill:#48BBBE;}
	.st71{fill:#46BABE;}
	.st72{fill:#46BABF;}
	.st73{fill:#43BABF;}
	.st74{fill:#41BABF;}
	.st75{fill:#41BAC0;}
	.st76{fill:#3EB9C0;}
	.st77{fill:#3BB9C1;}
	.st78{fill:#39B9C1;}
	.st79{fill:#36B8C1;}
	.st80{fill:#33B8C1;}
	.st81{fill:#30B8C1;}
	.st82{fill:#2CB7C1;}
	.st83{fill:#28B7C2;}
	.st84{fill:#27B7C4;}
	.st85{fill:#23B7C4;}
	.st86{fill:#1EB6C4;}
	.st87{fill:#19B6C4;}
	.st88{fill:#18B6C5;}
	.st89{fill:#17B6C6;}
	.st90{fill:#0EB6C8;}
	.st91{fill:#14B6CA;}
	.st92{fill:#0BB6CA;}
	.st93{fill:#0BB6CB;}
	.st94{fill:#10B5CC;}
	.st95{fill:#0EB5CD;}
	.st96{fill:#05B4CE;}
	.st97{fill:#08B3D0;}
	.st98{fill:#00B2D1;}
	.st99{fill:#07B0D1;}
	.st100{fill:#04B1D2;}
	.st101{fill:#0AAFD2;}
	.st102{fill:#01AED4;}
	.st103{fill:#00AED5;}
	.st104{fill:#00ACD6;}
	.st105{fill:#0CACD6;}
	.st106{fill:#11ABD7;}
	.st107{fill:#0AAAD8;}
	.st108{fill:#0EA8DA;}
	.st109{fill:#10A8DB;}
	.st110{fill:#0FA8DC;}
	.st111{fill:#12A6DD;}
	.st112{fill:#0DA5DE;}
	.st113{fill:#0FA4DF;}
	.st114{fill:#15A3DE;}
	.st115{fill:#1AA2DC;}
	.st116{fill:#1CA1DC;}
	.st117{fill:#1C9FDA;}
	.st118{fill:#219DD9;}
	.st119{fill:#259BD7;}
	.st120{fill:#289AD6;}
	.st121{fill:#2C98D4;}
	.st122{fill:#2D97D4;}
	.st123{fill:#3095D2;}
	.st124{fill:#3194D2;}
	.st125{fill:#3392D0;}
	.st126{fill:#3591CF;}
	.st127{fill:#378FCE;}
	.st128{fill:#378ECD;}
	.st129{fill:#398CCB;}
	.st130{fill:#3B8ACA;}
	.st131{fill:#3C89C9;}
	.st132{fill:#3C87C8;}
	.st133{fill:#3D86C7;}
	.st134{fill:#3E85C6;}
	.st135{fill:#3F82C4;}
	.st136{fill:#3E81C3;}
	.st137{fill:#3D7FC2;}
	.st138{fill:#3F7EC1;}
	.st139{fill:#3E7DC0;}
	.st140{fill:#3D7CBF;}
	.st141{fill:#3E7BBE;}
	.st142{fill:#3E79BD;}
	.st143{fill:#3E77BC;}
	.st144{fill:#3D77BB;}
	.st145{fill:#3D76BB;}
	.st146{fill:#3C75BA;}
	.st147{fill:#3B76BB;}
	.st148{fill:#3A75BA;}
	.st149{fill:#3A74B9;}
	.st150{fill:#3974BA;}
	.st151{fill:#3873B9;}
	.st152{fill:#3973B9;}
	.st153{fill:#3872B8;}
	.st154{fill:#3771B8;}
	.st155{fill:#3570B7;}
	.st156{fill:#3670B7;}
	.st157{fill:#356FB6;}
	.st158{fill:#366FB6;}
	.st159{fill:#346EB5;}
	.st160{fill:#356EB5;}
	.st161{fill:#346DB4;}
	.st162{fill:#336CB3;}
	.st163{fill:#346BB3;}
	.st164{fill:#326BB3;}
	.st165{fill:#346AB2;}
	.st166{fill:#3269B1;}
	.st167{fill:#3168B1;}
	.st168{fill:#3367B0;}
	.st169{fill:#3268B0;}
	.st170{fill:#3267B0;}
	.st171{fill:#3266AF;}
	.st172{fill:#3165AF;}
	.st173{fill:#3164AE;}
	.st174{fill:#3163AD;}
	.st175{fill:#3063AD;}
	.st176{fill:#2F62AC;}
	.st177{fill:#3061AC;}
	.st178{fill:#2F61AB;}
	.st179{fill:#3060AB;}
	.st180{fill:#2F5FAA;}
	.st181{fill:#2E5EA9;}
	.st182{fill:#2F5EA9;}
	.st183{fill:#2E5DA8;}
	.st184{fill:#2F5CA8;}
	.st185{fill:#2D5CA8;}
	.st186{fill:#2E5CA7;}
	.st187{fill:#2D5AA6;}
	.st188{fill:#2C5AA6;}
	.st189{fill:#2D59A5;}
	.st190{fill:#2C58A5;}
	.st191{fill:#2E57A4;}
	.st192{fill:#2D57A4;}
	.st193{fill:#2C56A3;}
	.st194{fill:#2D55A3;}
	.st195{fill:#2C55A2;}
	.st196{fill:#2D53A1;}
	.st197{fill:#2C53A1;}
	.st198{fill:#2D52A0;}
	.st199{fill:#2E52A0;}
	.st200{fill:#2D519F;}
	.st201{fill:#2D509F;}
	.st202{fill:#2D4F9E;}
	.st203{fill:#2C4F9E;}
	.st204{fill:#2D4E9D;}
	.st205{fill:#2C4D9D;}
	.st206{fill:#2D4D9C;}
	.st207{fill:#2C4C9B;}
	.st208{fill:#2D4B9B;}
	.st209{fill:#2D4A9A;}
	.st210{fill:#2D4999;}
	.st211{fill:#2D4899;}
	.st212{fill:#2C4798;}
	.st213{fill:#2B4798;}
	.st214{fill:#2C4697;}
	.st215{fill:#2B4597;}
	.st216{fill:#2C4496;}
	.st217{fill:#2C4395;}
	.st218{fill:#2C4294;}
	.st219{fill:#2D4194;}
	.st220{fill:#2C4093;}
	.st221{fill:#2C3F92;}
	.st222{fill:#2D3F92;}
	.st223{fill:#2D3D91;}
	.st224{fill:#2E3D91;}
	.st225{fill:#2D3C90;}
	.st226{fill:#2C3B8F;}
	.st227{fill:#2D3A8F;}
	.st228{fill:#2D398E;}
	.st229{fill:#2E388D;}
	.st230{fill:#2D378C;}
	.st231{fill:#2D368B;}
	.st232{fill:#2E368B;}
	.st233{fill:#2E358A;}
	.st234{fill:#2E348A;}
	.st235{fill:#2E3388;}
	.st236{fill:#2D3288;}
	.st237{fill:#2E3187;}
	.st238{fill:#2D3186;}
	.st239{fill:#2E3084;}
	.st240{fill:#2E3083;}
	.st241{fill:#2C2F82;}
	.st242{fill:#2F2E80;}
	.st243{fill:#2D2E80;}
	.st244{fill:#302D7E;}
	.st245{fill:#302D7D;}
	.st246{fill:#FFFFFF;}
</style>
<g>
	<g>
		<defs>
			<polygon id="SVGID_1_" points="537.8,436.6 537.8,159.1 297.6,20.7 57.5,159.1 57.5,436.6 297.6,575.3 			"/>
		</defs>
		<clipPath id="SVGID_00000059997803343466988670000008321474342586019981_">
			<use xlink:href="#SVGID_1_"  style="overflow:visible;"/>
		</clipPath>
		<g style="clip-path:url(#SVGID_00000059997803343466988670000008321474342586019981_);">
			<rect x="57.5" y="20.7" class="st1" width="480.3" height="554.7"/>
			<path class="st1" d="M561.1,450.6c-74.8,143.4-252,198.8-395.1,123.7C97.4,538.3,45.6,476.5,22.3,402.4h25.9V179.2H42
				C116.8,35.8,294-19.6,437.1,55.5c68.7,35.9,120.4,97.8,143.8,171.8h-34.2v223.2L561.1,450.6L561.1,450.6z"/>
			<path class="st1" d="M560.8,450.2C486,593.3,309.5,648.7,166.4,573.9C97.8,537.9,46,476.1,23,402.4h25.5V179.5h-5.8
				C117.5,36.5,294-18.9,437.1,55.9c68.7,35.9,120.4,97.8,143.4,171.5h-33.8v222.9L560.8,450.2L560.8,450.2z"/>
			<path class="st2" d="M560.4,450.2c-74.8,142.7-251.3,198.1-394,123.3C97.8,537.6,46.4,476.1,23.4,402.1h25.2V179.5h-5.4
				C117.9,36.8,294-18.5,437.1,56.2c68.7,35.9,120.1,97.4,143.4,171.5h-33.4v222.5L560.4,450.2z"/>
			<path class="st2" d="M560.1,449.9c-74.4,142.7-250.6,197.7-393.3,123.3C98.1,537.2,46.7,475.8,23.7,402.1h24.8V179.9h-5
				C118.3,37.2,294.4-17.8,436.8,57c68.3,35.9,119.7,97.4,142.7,171.1h-32.7v221.8H560.1z"/>
			<path class="st2" d="M559.7,449.9c-74.8,142.4-250.6,197.4-393.3,122.6C98.1,536.9,47.1,475.4,24.1,402.1h24.4V179.9h-4.7
				C118.3,37.6,294-17.8,436.4,56.6c68.3,35.9,119.7,97.4,143.1,171.1h-32.4v222.2H559.7z"/>
			<path class="st3" d="M559.3,449.5c-74.4,142.4-249.8,197.4-392.2,122.9C98.8,536.9,47.4,475.4,24.4,401.7h24.1V180.3h-4.3
				C118.6,37.9,294-17.1,436.4,57.3c68.3,35.6,119.7,97.1,142.7,170.8h-32v221.4H559.3z"/>
			<path class="st4" d="M559,449.2c-74.1,142-249.5,197-391.5,122.6C99.2,536.2,48.2,474.7,25.2,401.3h23.4V180.3h-3.6
				c74.4-142,249.5-197,391.5-122.6c68.3,35.6,119.3,97.1,142.4,170.4h-31.6v221.1L559,449.2z"/>
			<path class="st4" d="M558.6,448.8c-74.1,141.6-249.1,196.6-390.8,122.6c-67.9-35.6-119.3-96.7-142.4-170h23V180.6h-3.2
				C119.3,39,294.4-16,436,58c67.9,35.6,119.3,96.7,142.4,170h-31.3v220.7L558.6,448.8L558.6,448.8z"/>
			<path class="st4" d="M558.3,448.8C484.2,590.4,309.5,645.1,167.9,571c-67.9-35.6-119-96.7-142-169.7h22.6V181h-2.9
				C119.7,39.4,294.4-15.3,436,58.8c67.9,35.6,119,96.7,142,170h-30.9v220.4L558.3,448.8z"/>
			<path class="st5" d="M557.9,448.4c-74.1,141.3-248.4,195.9-389.7,121.9c-67.9-35.6-119-96.3-141.6-169.7h22.3v-220h-2.5
				C120.4,39.4,294.8-15.3,436,58.4C504,94,555,154.7,577.7,228.1h-30.6v220h10.8V448.4z"/>
			<path class="st6" d="M557.2,448.4c-73.7,141.3-248,195.6-389.3,121.9C99.9,534.7,49.2,474,26.2,401h21.9V181.3H46
				C119.7,40.1,294-14.2,435,59.5c67.9,35.6,118.6,96.3,141.6,169.3h-29.8v219.6H557.2z"/>
			<path class="st6" d="M556.8,448.1C483.1,589,309.1,643.6,168.2,569.9C100.6,534.7,49.6,473.6,27,400.6h21.6V181h-1.8
				C120.4,40.1,294.4-14.6,435.3,59.1c67.6,35.2,118.6,96.3,141.3,169h-29.5v219.6h9.7V448.1z"/>
			<path class="st6" d="M556.5,447.7c-73.7,140.6-247.3,194.8-388.2,121.1c-67.6-35.2-118.3-96-140.9-168.6h21.2V181h-1.4
				C120.8,40.4,294.4-14.2,435.3,59.5c67.6,35.2,118.3,96,140.9,169h-29.1v219.3L556.5,447.7z"/>
			<path class="st7" d="M556.1,447.7c-73.3,140.6-246.6,194.8-387.2,121.5c-67.6-35.2-118.3-96-141.3-169h20.5V181.3h-1.1
				C120.4,40.8,293.7-13.8,434.2,59.5c67.6,35.2,118.6,96,141.3,169h-28.8v218.9h9.3V447.7z"/>
			<path class="st7" d="M555.7,447.4c-73.3,140.2-246.6,194.5-386.8,121.1C101.7,533.3,51,472.9,28.4,400.3h20.1V181.7h-0.7
				C121.1,41.5,294.4-12.8,434.6,60.6c67.2,35.2,117.9,95.6,140.6,168.2h-28.4v218.6H555.7z"/>
			<path class="st8" d="M555.4,447C482,587.2,309.1,641.1,169.3,568.1c-67.2-35.2-117.9-95.6-140.6-168.2h19.8V181.7h-0.4
				C121.5,41.5,294.4-12.4,434.2,60.9c67.2,35.2,117.9,95.6,140.6,167.9h-28V447L555.4,447L555.4,447z"/>
			<path class="st8" d="M555,447c-73,139.8-245.9,194.1-385.7,120.8C29.5,494.8-24.8,321.9,48.5,182.1
				c73-139.8,245.9-194.1,385.7-120.8c67.2,35.2,117.5,95.6,140.2,167.9h-27.3V447L555,447L555,447z"/>
			<path class="st9" d="M554.7,446.6c-73,139.5-245.5,193.4-385,120.4s-193.4-245.5-120.4-385s245.5-193.4,385-120.4
				c66.9,35.2,117.5,95.3,139.8,167.5h-27v217.5H554.7z"/>
			<path class="st10" d="M554.3,446.3c-73,139.5-245.2,193.4-384.3,120.4C30.5,493.7-23.4,321.5,49.6,182.4S294.8-11,433.9,62
				c66.9,34.9,117.2,95.3,139.8,167.2h-26.6v217.1H554.3z"/>
			<path class="st11" d="M553.9,446.3c-72.6,139.1-244.4,193-383.9,120.1C30.9,493.7-23,321.9,50,182.4s244.4-193,383.9-120.1
				c66.9,34.9,117.2,94.9,139.5,167.2h-26.2v216.8H553.9z"/>
			<path class="st11" d="M553.6,445.9C481,585,309.5,639,170.4,566.3S-22.7,322.3,50,183.1S294-9.9,433.2,62.7
				C500,97.6,550,157.6,572.6,229.5h-25.9v216.4L553.6,445.9L553.6,445.9z"/>
			<path class="st11" d="M552.9,445.9C480.3,584.7,309.1,638.2,170.4,566C31.6,493.4-21.9,322.3,50.3,183.5S294-8.8,432.8,63.4
				c66.5,34.9,116.8,94.9,139.1,166.4h-25.2v216H552.9z"/>
			<path class="st12" d="M552.5,445.6c-72.6,138.4-243.4,192-382.1,119.7s-192-243.4-119.7-382.1C123.3,44.7,294-8.8,432.8,63.4
				c66.5,34.9,116.5,94.5,139.1,166.4h-24.8v215.7H552.5z"/>
			<path class="st12" d="M552.1,445.2c-72.3,138.4-243,191.6-381.4,119.3s-191.6-243-119.3-381.4C123.7,44.7,294.4-8.5,432.8,63.8
				c66.5,34.9,116.1,94.5,138.8,166.1h-24.4v215.3L552.1,445.2L552.1,445.2z"/>
			<path class="st12" d="M551.8,445.2c-72.3,138-242.6,191.6-380.7,119.3S-20.5,321.9,51.8,183.9C124,45.8,294.4-7.7,432.4,64.5
				c66.1,34.5,116.1,94.2,138.4,165.7h-24.1v215.3h5V445.2z"/>
			<path class="st13" d="M551.4,444.8c-72.3,138-242.3,191.2-380.3,119s-191.2-242.3-119-380.3S294.4-7.7,432.4,64.5
				c66.1,34.5,116.1,94.2,138.4,165.4h-23.7v215L551.4,444.8L551.4,444.8z"/>
			<path class="st14" d="M551.1,444.5c-71.9,137.7-241.9,190.9-379.6,119s-190.9-241.9-119-379.6S294.4-7,432.1,64.9
				c66.1,34.5,115.8,94.2,138,165.4h-23.4v214.6h4.3V444.5z"/>
			<path class="st15" d="M550.7,444.5C478.8,581.8,309.1,635,171.5,563.1S-19.1,321.5,52.8,183.9S294.4-6.7,432.1,65.2
				c66.1,34.5,115.8,93.8,138,165h-23v214.2H550.7z"/>
			<path class="st15" d="M550.4,444.1c-71.9,137.3-241.2,190.2-378.5,118.6S-18.3,321.5,53.2,184.2C125.1,46.9,294.4-5.9,431.7,65.6
				c65.8,34.5,115.4,93.8,137.7,164.6h-22.3v213.9H550.4z"/>
			<path class="st15" d="M550,443.8c-71.5,137-240.9,190.2-377.8,118.3S-18,321.2,53.9,184.2S294.8-5.9,431.7,66
				c65.8,34.5,115.4,93.8,137.7,164.6h-21.9v213.5L550,443.8z"/>
			<path class="st16" d="M549.6,443.8c-71.5,137-240.5,189.8-377.5,118.3S-17.6,321.5,53.9,184.6S294.4-5.2,431.4,66.3
				c65.8,34.5,115,93.5,137.3,164.3h-21.6v213.2L549.6,443.8L549.6,443.8z"/>
			<path class="st17" d="M549.3,443.4C477.7,580,309.1,632.9,172.5,561.3S-16.9,321.2,54.6,184.6S294.8-4.9,431.4,66.7
				c65.4,34.2,115,93.1,137,163.9h-21.2v212.8H549.3z"/>
			<path class="st18" d="M548.9,443c-71.5,136.2-239.8,189.1-376,117.9S-16.2,321.2,55,184.9C126.5,48.7,294.8-4.1,431,67
				c65.4,34.2,114.7,93.1,136.6,163.6h-20.8V443L548.9,443z"/>
			<path class="st18" d="M548.2,443C477,579.3,308.8,632.1,172.5,560.6S-16.5,321.2,55,184.9S294.4-4.1,430.6,67.4
				c65.4,34.2,114.7,93.1,136.6,163.6h-20.1V443L548.2,443L548.2,443z"/>
			<path class="st19" d="M547.8,442.7c-71.2,135.9-239.1,188.4-374.9,117.5S-15.5,321.2,55.3,185.3S294.4-3.1,430.3,67.8
				c65.4,34.2,114.3,92.7,136.2,163.2h-19.8v211.7H547.8z"/>
			<path class="st20" d="M547.5,442.7c-71.2,135.9-238.7,188.4-374.2,117.2C37.4,488.7-15.1,321.2,56.1,185.7
				C127.2,49.8,294.8-2.7,430.3,68.5c65.1,34.2,114.3,92.7,136.2,162.8h-19.4v211.4H547.5z"/>
			<path class="st20" d="M547.1,442.3c-70.8,135.5-238.3,188-373.9,117.2s-188-238.3-117.2-373.9C126.9,50.1,294.4-2.3,429.9,68.5
				c65.1,34.2,114,92.4,135.9,162.8h-19.1L547.1,442.3L547.1,442.3z"/>
			<path class="st21" d="M546.8,442c-70.8,135.5-238,187.6-373.1,116.8S-14,320.8,56.8,185.7C127.6,50.1,294.8-2,429.9,68.8
				c65.1,34.2,114,92.4,135.9,162.5C587.7,301.4,580.9,377.3,546.8,442z"/>
			<path class="st22" d="M546.4,442C475.6,577.1,308.8,629.3,174,558.8C38.8,488-13.3,321.2,57.1,186.4
				C128,51.2,294.8-0.9,429.6,69.5c65.1,33.8,113.6,92.4,135.5,162.1C587,301.4,580.2,376.9,546.4,442z"/>
			<path class="st22" d="M546,441.6C475.6,576.4,308.8,628.5,174,558.1S-13,320.8,57.5,186S294.8-0.9,429.6,69.5
				c64.7,33.8,113.2,92,135.2,161.8S579.8,376.9,546,441.6z"/>
			<path class="st23" d="M545.7,441.2c-70.5,134.8-236.9,186.6-371.3,116.1S-12.2,320.5,58.2,186S295.1-0.5,429.6,69.9
				c64.7,33.8,113.2,92,135.2,161.4C586.3,301.1,579.5,376.5,545.7,441.2z"/>
			<path class="st24" d="M545.3,441.2c-70.5,134.4-236.2,186.6-371,116.1s-186.6-236.2-116.1-371S294.4-0.2,429.2,70.3
				c64.7,33.8,113.2,91.7,134.8,161.4C585.9,301.1,579.1,376.5,545.3,441.2z"/>
			<path class="st24" d="M545,440.9C474.9,575,309.1,627.1,174.7,557S-11.5,321.2,58.6,186.7S294.4,0.5,428.8,70.6
				c64.3,33.8,112.9,91.7,134.8,161C585.2,301.1,578.7,376.5,545,440.9z"/>
			<path class="st25" d="M544.6,440.5c-70.1,134.1-235.5,185.9-369.5,115.8S-10.8,320.8,59.3,186.7S294.8,0.9,428.8,71
				c64.3,33.8,112.9,91.7,134.4,160.7C584.9,301.1,578,376.2,544.6,440.5z"/>
			<path class="st26" d="M544.2,440.5C474.1,574.3,309.1,626,175.1,556.3S-10.4,321.2,59.3,187.1S294.4,1.6,428.5,71.3
				C492.8,104.8,541,162.7,562.6,232C584.5,301.1,577.7,376.2,544.2,440.5z"/>
			<path class="st27" d="M543.9,440.2c-69.7,133.7-234.7,185.1-368.5,115.4S-9.7,320.8,60,187.1S294.8,2,428.5,71.7
				C492.5,105.1,541,163,562.6,232C584.1,301.1,577.3,376.2,543.9,440.2z"/>
			<path class="st27" d="M543.5,439.8c-69.7,133.4-234.4,185.1-367.7,115.4C42.4,485.5-9.4,320.8,60.4,187.5S294.8,2.3,428.1,72.1
				c64,33.4,112.2,90.9,133.7,160C583.4,301.1,577,375.8,543.5,439.8z"/>
			<path class="st28" d="M542.8,439.8c-69.7,133.4-234,184.8-367.4,115s-184.8-234-115-367.4s234-184.8,367.4-115
				c64,33.4,112.2,90.9,133.7,160C583.1,301.1,576.2,375.8,542.8,439.8z"/>
			<path class="st28" d="M542.4,439.5c-69.4,133-233.7,184.4-366.7,114.7S-8.6,320.5,61.1,187.5S294.8,3,427.8,72.8
				c64,33.4,111.8,90.9,133.4,159.6C582.7,301.1,575.9,375.8,542.4,439.5z"/>
			<path class="st29" d="M542.1,439.5c-69.4,132.6-233.3,184.1-365.9,114.7S-7.9,320.8,61.5,188.2C130.8,55.5,294.8,4.1,427.4,73.5
				c63.6,33.4,111.8,90.6,133,159.2C582,301.1,575.5,375.5,542.1,439.5z"/>
			<path class="st29" d="M541.7,439.1c-69.4,132.6-232.9,183.7-365.6,114.7S-7.6,320.8,61.5,188.2S294.4,4.5,427,73.5
				c63.6,33.4,111.4,90.6,133,158.9C581.6,301.1,575.2,375.5,541.7,439.1z"/>
			<circle class="st30" cx="301.6" cy="313.6" r="270.3"/>
			<circle class="st30" cx="301.6" cy="313.6" r="270"/>
			<circle class="st31" cx="301.6" cy="313.6" r="269.6"/>
			<circle class="st32" cx="301.6" cy="313.3" r="268.9"/>
			<circle class="st32" cx="301.6" cy="313.3" r="268.5"/>
			<circle class="st33" cx="301.6" cy="313.3" r="268.2"/>
			<circle class="st34" cx="301.6" cy="313.3" r="267.8"/>
			<circle class="st35" cx="301.6" cy="313.3" r="267.5"/>
			<circle class="st35" cx="301.6" cy="313.3" r="266.7"/>
			<circle class="st36" cx="301.6" cy="313.3" r="266.4"/>
			<circle class="st36" cx="301.6" cy="313.3" r="266"/>
			<circle class="st37" cx="301.6" cy="313.3" r="265.7"/>
			<circle class="st37" cx="301.6" cy="313.3" r="264.9"/>
			<circle class="st38" cx="301.6" cy="313.3" r="264.6"/>
			<circle class="st38" cx="301.6" cy="313.3" r="264.2"/>
			<circle class="st39" cx="301.6" cy="313.3" r="263.9"/>
			<circle class="st39" cx="301.6" cy="312.9" r="263.5"/>
			<circle class="st40" cx="301.6" cy="312.9" r="262.8"/>
			<circle class="st41" cx="301.6" cy="312.9" r="262.4"/>
			<circle class="st42" cx="301.6" cy="312.9" r="262.1"/>
			<circle class="st42" cx="301.6" cy="312.9" r="261.7"/>
			<circle class="st43" cx="301.6" cy="312.9" r="261"/>
			<circle class="st43" cx="301.6" cy="312.9" r="260.6"/>
			<circle class="st44" cx="301.6" cy="312.9" r="260.3"/>
			<circle class="st44" cx="301.6" cy="312.9" r="259.9"/>
			<circle class="st45" cx="301.6" cy="312.9" r="259.5"/>
			<circle class="st45" cx="301.6" cy="312.9" r="258.8"/>
			<circle class="st46" cx="301.6" cy="312.9" r="258.5"/>
			<circle class="st46" cx="301.6" cy="312.9" r="258.1"/>
			<circle class="st47" cx="301.6" cy="312.6" r="257.7"/>
			<circle class="st48" cx="301.6" cy="312.6" r="257.4"/>
			<circle class="st49" cx="301.6" cy="312.6" r="256.7"/>
			<circle class="st50" cx="301.6" cy="312.6" r="256.3"/>
			<circle class="st50" cx="301.6" cy="312.6" r="255.9"/>
			<circle class="st51" cx="301.6" cy="312.6" r="255.6"/>
			<circle class="st51" cx="301.6" cy="312.6" r="254.9"/>
			<circle class="st51" cx="301.6" cy="312.6" r="254.5"/>
			<circle class="st52" cx="301.6" cy="312.6" r="254.2"/>
			<circle class="st53" cx="301.6" cy="312.6" r="253.8"/>
			<circle class="st53" cx="301.6" cy="312.6" r="253.4"/>
			<circle class="st54" cx="301.6" cy="312.6" r="252.7"/>
			<circle class="st54" cx="301.6" cy="312.6" r="252.4"/>
			<circle class="st55" cx="301.6" cy="312.2" r="252"/>
			<circle class="st55" cx="301.6" cy="312.2" r="251.6"/>
			<circle class="st55" cx="301.6" cy="312.2" r="250.9"/>
			<circle class="st56" cx="301.6" cy="312.2" r="250.6"/>
			<circle class="st56" cx="301.6" cy="312.2" r="250.2"/>
			<circle class="st57" cx="301.6" cy="312.2" r="249.8"/>
			<circle class="st57" cx="301.6" cy="312.2" r="249.5"/>
			<circle class="st58" cx="301.6" cy="312.2" r="248.8"/>
			<circle class="st58" cx="301.6" cy="312.2" r="248.4"/>
			<circle class="st59" cx="301.6" cy="312.2" r="248"/>
			<circle class="st59" cx="301.6" cy="312.2" r="247.7"/>
			<circle class="st60" cx="301.6" cy="312.2" r="247"/>
			<circle class="st60" cx="301.6" cy="312.2" r="246.6"/>
			<circle class="st61" cx="301.6" cy="311.8" r="246.2"/>
			<circle class="st62" cx="301.6" cy="311.8" r="245.9"/>
			<circle class="st62" cx="301.6" cy="311.8" r="245.5"/>
			<circle class="st63" cx="301.6" cy="311.8" r="244.8"/>
			<circle class="st63" cx="301.6" cy="311.8" r="244.4"/>
			<circle class="st64" cx="301.6" cy="311.8" r="244.1"/>
			<circle class="st65" cx="301.6" cy="311.8" r="243.7"/>
			<circle class="st65" cx="301.6" cy="311.8" r="243"/>
			<circle class="st66" cx="301.6" cy="311.8" r="242.6"/>
			<circle class="st66" cx="301.6" cy="311.8" r="242.3"/>
			<circle class="st66" cx="301.6" cy="311.8" r="241.9"/>
			<circle class="st67" cx="301.6" cy="311.8" r="241.6"/>
			<circle class="st68" cx="301.6" cy="311.8" r="240.9"/>
			<circle class="st69" cx="301.6" cy="311.5" r="240.5"/>
			<circle class="st69" cx="301.6" cy="311.5" r="240.1"/>
			<circle class="st70" cx="301.6" cy="311.5" r="239.8"/>
			<circle class="st70" cx="301.6" cy="311.5" r="239.4"/>
			<circle class="st71" cx="301.6" cy="311.5" r="238.7"/>
			<circle class="st71" cx="301.6" cy="311.5" r="238.3"/>
			<circle class="st72" cx="301.6" cy="311.5" r="238"/>
			<circle class="st73" cx="301.6" cy="311.5" r="237.6"/>
			<circle class="st73" cx="301.6" cy="311.5" r="236.9"/>
			<circle class="st73" cx="301.6" cy="311.5" r="236.5"/>
			<circle class="st74" cx="301.6" cy="311.5" r="236.2"/>
			<circle class="st75" cx="301.6" cy="311.5" r="235.8"/>
			<circle class="st75" cx="301.6" cy="311.5" r="235.1"/>
			<circle class="st76" cx="301.6" cy="311.1" r="234.7"/>
			<circle class="st76" cx="301.6" cy="311.1" r="234.4"/>
			<circle class="st76" cx="301.6" cy="311.1" r="234"/>
			<circle class="st77" cx="301.6" cy="311.1" r="233.7"/>
			<circle class="st77" cx="301.6" cy="311.1" r="232.9"/>
			<circle class="st78" cx="301.6" cy="311.1" r="232.6"/>
			<circle class="st78" cx="301.6" cy="311.1" r="232.2"/>
			<circle class="st79" cx="301.6" cy="311.1" r="231.9"/>
			<circle class="st79" cx="301.6" cy="311.1" r="231.5"/>
			<circle class="st79" cx="301.6" cy="311.1" r="230.8"/>
			<circle class="st80" cx="301.6" cy="311.1" r="230.4"/>
			<circle class="st81" cx="301.6" cy="311.1" r="230.1"/>
			<circle class="st81" cx="301.6" cy="311.1" r="229.7"/>
			<circle class="st82" cx="301.6" cy="310.8" r="229.3"/>
			<circle class="st82" cx="301.6" cy="310.8" r="228.6"/>
			<circle class="st82" cx="301.6" cy="310.8" r="228.3"/>
			<circle class="st83" cx="301.6" cy="310.8" r="227.9"/>
			<circle class="st83" cx="301.6" cy="310.8" r="227.5"/>
			<circle class="st83" cx="301.6" cy="310.8" r="226.8"/>
			<circle class="st83" cx="301.6" cy="310.8" r="226.5"/>
			<circle class="st84" cx="301.6" cy="310.8" r="226.1"/>
			<circle class="st84" cx="301.6" cy="310.8" r="225.8"/>
			<circle class="st84" cx="301.6" cy="310.8" r="225"/>
			<circle class="st85" cx="301.6" cy="310.8" r="224.7"/>
			<circle class="st85" cx="301.6" cy="310.8" r="224.3"/>
			<circle class="st85" cx="301.6" cy="310.8" r="224"/>
			<circle class="st86" cx="301.6" cy="310.4" r="223.6"/>
			<circle class="st86" cx="301.6" cy="310.4" r="222.9"/>
			<circle class="st86" cx="301.6" cy="310.4" r="222.5"/>
			<circle class="st87" cx="301.6" cy="310.4" r="222.2"/>
			<circle class="st87" cx="301.6" cy="310.4" r="221.8"/>
			<circle class="st87" cx="301.6" cy="310.4" r="221.1"/>
			<circle class="st88" cx="301.6" cy="310.4" r="220"/>
			<circle class="st89" cx="301.6" cy="310.4" r="218.9"/>
			<circle class="st90" cx="301.6" cy="310.4" r="217.8"/>
			<circle class="st91" cx="301.6" cy="310" r="216.4"/>
			<circle class="st92" cx="301.6" cy="310" r="215.3"/>
			<circle class="st93" cx="301.6" cy="310" r="214.2"/>
			<circle class="st94" cx="301.6" cy="310" r="212.8"/>
			<circle class="st95" cx="301.6" cy="309.7" r="211.7"/>
			<circle class="st96" cx="301.6" cy="309.7" r="210.7"/>
			<circle class="st97" cx="301.6" cy="309.7" r="209.2"/>
			<circle class="st98" cx="301.6" cy="309.7" r="208.1"/>
			<circle class="st99" cx="301.6" cy="309.7" r="207.1"/>
			<circle class="st100" cx="301.6" cy="309.3" r="206"/>
			<circle class="st101" cx="301.6" cy="309.3" r="204.5"/>
			<circle class="st102" cx="301.6" cy="309.3" r="203.5"/>
			<circle class="st103" cx="301.6" cy="309.3" r="202"/>
			<circle class="st104" cx="301.6" cy="309.3" r="200.9"/>
			<circle class="st105" cx="301.6" cy="309" r="199.9"/>
			<circle class="st106" cx="301.6" cy="309" r="198.8"/>
			<circle class="st107" cx="301.6" cy="309" r="197.4"/>
			<circle class="st108" cx="301.6" cy="309" r="196.3"/>
			<circle class="st109" cx="301.6" cy="309" r="195.2"/>
			<circle class="st110" cx="301.6" cy="308.6" r="193.8"/>
			<circle class="st111" cx="301.6" cy="308.6" r="192.7"/>
			<circle class="st112" cx="301.6" cy="308.6" r="191.6"/>
			<circle class="st113" cx="301.6" cy="308.6" r="190.5"/>
			<circle class="st114" cx="301.6" cy="308.2" r="189.1"/>
			<circle class="st115" cx="301.6" cy="308.2" r="188"/>
			<circle class="st116" cx="301.6" cy="308.2" r="186.9"/>
			<circle class="st117" cx="301.6" cy="308.2" r="185.5"/>
			<circle class="st118" cx="301.6" cy="308.2" r="184.4"/>
			<circle class="st119" cx="301.6" cy="307.9" r="183.3"/>
			<circle class="st120" cx="301.6" cy="307.9" r="181.9"/>
			<circle class="st121" cx="301.6" cy="307.9" r="180.8"/>
			<circle class="st122" cx="301.6" cy="307.9" r="179.7"/>
			<circle class="st123" cx="301.6" cy="307.9" r="178.3"/>
			<circle class="st124" cx="301.6" cy="307.5" r="177.2"/>
			<circle class="st125" cx="301.6" cy="307.5" r="176.1"/>
			<circle class="st126" cx="301.6" cy="307.5" r="174.7"/>
			<circle class="st127" cx="301.6" cy="307.5" r="173.6"/>
			<circle class="st128" cx="301.6" cy="307.2" r="172.5"/>
			<circle class="st129" cx="301.6" cy="307.2" r="171.5"/>
			<circle class="st130" cx="301.6" cy="307.2" r="170"/>
			<circle class="st131" cx="301.6" cy="307.2" r="169"/>
			<circle class="st132" cx="301.6" cy="307.2" r="167.9"/>
			<circle class="st133" cx="301.6" cy="306.8" r="166.4"/>
			<circle class="st134" cx="301.6" cy="306.8" r="165.4"/>
			<circle class="st135" cx="301.6" cy="306.8" r="164.3"/>
			<circle class="st136" cx="301.6" cy="306.8" r="162.8"/>
			<circle class="st137" cx="301.6" cy="306.8" r="161.8"/>
			<circle class="st138" cx="301.6" cy="306.4" r="160.7"/>
			<circle class="st139" cx="301.6" cy="306.4" r="159.2"/>
			<circle class="st140" cx="301.6" cy="306.4" r="158.2"/>
			<circle class="st141" cx="301.6" cy="306.4" r="157.1"/>
			<circle class="st142" cx="301.6" cy="306.4" r="156"/>
			<circle class="st142" cx="301.6" cy="306.4" r="154.6"/>
			<circle class="st142" cx="301.6" cy="306.1" r="153.9"/>
			<circle class="st142" cx="301.6" cy="306.1" r="152.8"/>
			<circle class="st143" cx="301.6" cy="306.1" r="152.1"/>
			<circle class="st144" cx="301.6" cy="306.1" r="151"/>
			<circle class="st144" cx="301.6" cy="306.1" r="150.3"/>
			<circle class="st145" cx="301.6" cy="306.1" r="149.2"/>
			<circle class="st146" cx="301.6" cy="305.7" r="148.5"/>
			<circle class="st147" cx="301.6" cy="305.7" r="147.4"/>
			<circle class="st148" cx="301.6" cy="305.7" r="146.7"/>
			<circle class="st149" cx="301.6" cy="305.7" r="145.9"/>
			<circle class="st150" cx="301.6" cy="305.7" r="144.9"/>
			<circle class="st151" cx="301.6" cy="305.7" r="144.2"/>
			<circle class="st152" cx="301.6" cy="305.7" r="143.1"/>
			<circle class="st152" cx="301.6" cy="305.4" r="142.4"/>
			<circle class="st153" cx="301.6" cy="305.4" r="141.3"/>
			<circle class="st154" cx="301.6" cy="305.4" r="140.6"/>
			<circle class="st155" cx="301.6" cy="305.4" r="139.5"/>
			<circle class="st155" cx="301.6" cy="305.4" r="138.8"/>
			<circle class="st156" cx="301.6" cy="305.4" r="137.7"/>
			<circle class="st157" cx="301.6" cy="305" r="137"/>
			<circle class="st158" cx="301.6" cy="305" r="135.9"/>
			<circle class="st158" cx="301.6" cy="305" r="135.2"/>
			<circle class="st159" cx="301.6" cy="305" r="134.4"/>
			<circle class="st160" cx="301.6" cy="305" r="133.4"/>
			<circle class="st160" cx="301.6" cy="305" r="132.6"/>
			<circle class="st161" cx="301.6" cy="305" r="131.6"/>
			<circle class="st162" cx="301.6" cy="304.6" r="130.8"/>
			<circle class="st163" cx="301.6" cy="304.6" r="129.8"/>
			<circle class="st162" cx="301.6" cy="304.6" r="129.1"/>
			<circle class="st164" cx="301.6" cy="304.6" r="128"/>
			<circle class="st165" cx="301.6" cy="304.6" r="127.3"/>
			<circle class="st166" cx="301.6" cy="304.6" r="126.2"/>
			<circle class="st166" cx="301.6" cy="304.3" r="125.5"/>
			<circle class="st166" cx="301.6" cy="304.3" r="124.7"/>
			<circle class="st167" cx="301.6" cy="304.3" r="123.7"/>
			<circle class="st168" cx="301.6" cy="304.3" r="122.9"/>
			<circle class="st169" cx="301.6" cy="304.3" r="121.9"/>
			<circle class="st170" cx="301.6" cy="304.3" r="121.1"/>
			<circle class="st171" cx="301.6" cy="303.9" r="120.1"/>
			<circle class="st172" cx="301.6" cy="303.9" r="119.3"/>
			<circle class="st172" cx="301.6" cy="303.9" r="118.3"/>
			<circle class="st172" cx="301.6" cy="303.9" r="117.5"/>
			<circle class="st173" cx="301.6" cy="303.9" r="116.5"/>
			<circle class="st174" cx="301.6" cy="303.9" r="115.8"/>
			<circle class="st175" cx="301.6" cy="303.9" r="115"/>
			<circle class="st175" cx="301.6" cy="303.6" r="114"/>
			<circle class="st176" cx="301.6" cy="303.6" r="113.2"/>
			<circle class="st177" cx="301.6" cy="303.6" r="112.2"/>
			<circle class="st178" cx="301.6" cy="303.6" r="111.4"/>
			<circle class="st178" cx="301.6" cy="303.6" r="110.4"/>
			<circle class="st179" cx="301.6" cy="303.6" r="109.6"/>
			<circle class="st180" cx="301.6" cy="303.2" r="108.6"/>
			<circle class="st180" cx="301.6" cy="303.2" r="107.8"/>
			<circle class="st180" cx="301.6" cy="303.2" r="106.8"/>
			<circle class="st181" cx="301.6" cy="303.2" r="106"/>
			<circle class="st182" cx="301.6" cy="303.2" r="105"/>
			<circle class="st183" cx="301.6" cy="303.2" r="104.2"/>
			<circle class="st184" cx="301.6" cy="303.2" r="103.5"/>
			<circle class="st185" cx="301.6" cy="302.9" r="102.5"/>
			<circle class="st186" cx="301.6" cy="302.9" r="101.7"/>
			<circle class="st187" cx="301.6" cy="302.9" r="100.7"/>
			<circle class="st188" cx="301.6" cy="302.9" r="99.9"/>
			<circle class="st188" cx="301.6" cy="302.9" r="98.9"/>
			<circle class="st189" cx="301.6" cy="302.9" r="98.1"/>
			<circle class="st190" cx="301.6" cy="302.5" r="97.1"/>
			<circle class="st191" cx="301.6" cy="302.5" r="96.3"/>
			<circle class="st192" cx="301.6" cy="302.5" r="95.3"/>
			<circle class="st192" cx="301.6" cy="302.5" r="94.5"/>
			<circle class="st193" cx="301.6" cy="302.5" r="93.5"/>
			<circle class="st194" cx="301.6" cy="302.5" r="92.7"/>
			<circle class="st195" cx="301.6" cy="302.5" r="92"/>
			<circle class="st195" cx="301.6" cy="302.1" r="90.9"/>
			<circle class="st196" cx="301.6" cy="302.1" r="90.2"/>
			<circle class="st197" cx="301.6" cy="302.1" r="89.2"/>
			<circle class="st198" cx="301.6" cy="302.1" r="88.4"/>
			<circle class="st199" cx="301.6" cy="302.1" r="87.4"/>
			<circle class="st200" cx="301.6" cy="302.1" r="86.6"/>
			<circle class="st201" cx="301.6" cy="301.8" r="85.6"/>
			<circle class="st202" cx="301.6" cy="301.8" r="84.8"/>
			<circle class="st203" cx="301.6" cy="301.8" r="83.8"/>
			<circle class="st204" cx="301.6" cy="301.8" r="83"/>
			<circle class="st205" cx="301.6" cy="301.8" r="82.3"/>
			<circle class="st206" cx="301.6" cy="301.8" r="81.2"/>
			<circle class="st207" cx="301.6" cy="301.8" r="80.5"/>
			<circle class="st208" cx="301.6" cy="301.4" r="79.4"/>
			<circle class="st208" cx="301.6" cy="301.4" r="78.7"/>
			<circle class="st209" cx="301.6" cy="301.4" r="77.6"/>
			<circle class="st210" cx="301.6" cy="301.4" r="76.9"/>
			<circle class="st211" cx="301.6" cy="301.4" r="75.8"/>
			<circle class="st212" cx="301.6" cy="301.4" r="75.1"/>
			<circle class="st213" cx="301.6" cy="301.1" r="74.1"/>
			<circle class="st214" cx="301.6" cy="301.1" r="73.3"/>
			<circle class="st215" cx="301.6" cy="301.1" r="72.3"/>
			<circle class="st216" cx="301.6" cy="301.1" r="71.5"/>
			<circle class="st217" cx="301.6" cy="301.1" r="70.8"/>
			<circle class="st217" cx="301.6" cy="301.1" r="69.7"/>
			<circle class="st218" cx="301.6" cy="300.7" r="69"/>
			<circle class="st219" cx="301.6" cy="300.7" r="67.9"/>
			<circle class="st220" cx="301.6" cy="300.7" r="67.2"/>
			<circle class="st221" cx="301.6" cy="300.7" r="66.1"/>
			<circle class="st222" cx="301.6" cy="300.7" r="65.4"/>
			<circle class="st223" cx="301.6" cy="300.7" r="64.3"/>
			<circle class="st224" cx="301.6" cy="300.7" r="63.6"/>
			<circle class="st225" cx="301.6" cy="300.3" r="62.5"/>
			<circle class="st226" cx="301.6" cy="300.3" r="61.8"/>
			<circle class="st227" cx="301.6" cy="300.3" r="61.1"/>
			<circle class="st228" cx="301.6" cy="300.3" r="60"/>
			<circle class="st229" cx="301.6" cy="300.3" r="59.3"/>
			<circle class="st230" cx="301.6" cy="300.3" r="58.2"/>
			<circle class="st231" cx="301.6" cy="300" r="57.5"/>
			<circle class="st232" cx="301.6" cy="300" r="56.4"/>
			<circle class="st233" cx="301.6" cy="300" r="55.7"/>
			<circle class="st234" cx="301.6" cy="300" r="54.6"/>
			<circle class="st235" cx="301.6" cy="300" r="53.9"/>
			<circle class="st236" cx="301.6" cy="300" r="52.8"/>
			<circle class="st237" cx="301.6" cy="300" r="52.1"/>
			<circle class="st238" cx="301.6" cy="299.6" r="51"/>
			<circle class="st239" cx="301.6" cy="299.6" r="50.3"/>
			<circle class="st240" cx="301.6" cy="299.6" r="49.6"/>
			<circle class="st241" cx="301.6" cy="299.6" r="48.5"/>
			<circle class="st242" cx="301.6" cy="299.6" r="47.8"/>
			<circle class="st243" cx="301.6" cy="299.6" r="46.7"/>
			<circle class="st244" cx="301.6" cy="299.3" r="46"/>
			<circle class="st245" cx="301.6" cy="299.3" r="44.9"/>
		</g>
	</g>
</g>
<path class="st246" d="M297.6,11l-248,143.4v286.5l248,143.4l248-143.4V154.4L297.6,11z M65.4,172.7l224.3,129.5v117.3L65.4,293.2
	V172.7z M297.6,288.5l-104.2-60.1l110.7-63.9l103.9,60.3L297.6,288.5z M416.3,238.6v116.9l-110.7,64V302.3L416.3,238.6z M305.5,438
	L416.3,374v123.4l-110.7,63.9V438z M320.2,155.1l97.4-56.2l104.3,60.2l-97.8,56.4L320.2,155.1z M401.8,89.8L177.6,219.2L73.4,159.1
	L297.6,29.6L401.8,89.8z M65.4,311.3l224.3,126.3v123.8L65.4,431.9V311.3z M432.1,488.4V229.5l97.8-56.2v258.6L432.1,488.4z"/>
</svg>
